<?xml version="1.0" encoding="utf-8"?>
<!-- Generator: Adobe Illustrator 25.0.0, SVG Export Plug-In . SVG Version: 6.00 Build 0)  -->
<svg version="1.1" id="Layer_1" xmlns="http://www.w3.org/2000/svg" xmlns:xlink="http://www.w3.org/1999/xlink" x="0px" y="0px"
	 viewBox="0 0 512 512" style="enable-background:new 0 0 512 512;" xml:space="preserve">
<style type="text/css">
	.st0{fill:#FFFFFF;}
</style>
<path class="st0" d="M425.5,56.4L256,0.2L86.5,56.4C60.3,65,42.7,89.5,42.7,117.1V256c0,160.5,196.3,249.2,204.7,252.8l7.6,3.3
	l7.9-2.6c8.4-2.8,206.6-70.6,206.6-253.6V117.1C469.3,89.5,451.7,65,425.5,56.4z M265.5,298.4c-7.5,7.6-17.8,11.8-28.5,11.8h-0.7
	c-10.9-0.2-21.3-4.8-28.7-12.8l-49.2-51.2l30.8-29.5l47.9,49.9l110.5-110.5l30.2,30.2L265.5,298.4z"/>
</svg>
